{
  "title": "Dracula.Untold.2014.TS.XViD.AC3.MrSeeN-SiMPLE",
  "uid": 11353928,
  "size": 866770677,
  "categoryP": "video",
  "categoryS": "movies",
  "magnet": "?xt=urn:btih:681afb07a7f28a7ddbe29e9203f69b333f27d63f&amp;dn=Dracula.Untold.2014.TS.XViD.AC3.MrSeeN-SiMPLE&amp;tr=udp%3A%2F%2Ftracker.openbittorrent.com%3A80&amp;tr=udp%3A%2F%2Fopen.demonii.com%3A1337&amp;tr=udp%3A%2F%2Ftracker.coppersurfer.tk%3A6969&amp;tr=udp%3A%2F%2Fexodus.desync.com%3A6969",
  "seeders": 40,
  "leechers": 7,
  "uploader": "xxxlavalxxx",
  "files": -1,
  "time": 1414922624,
  "description": "[IMG]http://i.imgur.com/wfxMZes.jpg[/IMG]\n\n &lt;a href=&quot;\nhttp://www.imdb.com/title/tt0829150/&quot; rel=&quot;nofollow&quot; target=&quot;_NEW&quot;&gt;\nhttp://www.imdb.com/title/tt0829150/&lt;/a&gt;\n\n\nFacing threats to his kingdom and his family, Vlad Tepes makes a deal with dangerous supernatural forces - whilst trying to avoid succumbing to the darkness himself.\n\nDirector: Gary Shore\nWriters: Matt Sazama, Burk Sharpless\nStars: Luke Evans, Dominic Cooper, Sarah Gadon\nGenres: Action,Drama,Fantasy,Horror,War\nCountry: USA\nLanguage: English\n\n\nFormat                                   : AVI\nFormat/Info                              : Audio Video Interleave\nFile size                                : 815 MiB\nDuration                                 : 1h 24mn\nOverall bit rate                         : 1 344 Kbps\nWriting library                          : VirtualDub build 32842/release\n\nVideo\nID                                       : 0\nFormat                                   : MPEG-4 Visual\nFormat profile                           : Advanced Simple@L5\nFormat settings, BVOP                    : 2\nFormat settings, QPel                    : No\nFormat settings, GMC                     : No warppoints\nFormat settings, Matrix                  : Default (H.263)\nMuxing mode                              : Packed bitstream\nCodec ID                                 : XVID\nCodec ID/Hint                            : XviD\nDuration                                 : 1h 24mn\nBit rate                                 : 1 205 Kbps\nWidth                                    : 688 pixels\nHeight                                   : 288 pixels\nDisplay aspect ratio                     : 2.40:1\nFrame rate                               : 29.970 fps\nColor space                              : YUV\nChroma subsampling                       : 4:2:0\nBit depth                                : 8 bits\nScan type                                : Progressive\nCompression mode                         : Lossy\nBits/(Pixel*Frame)                       : 0.203\nStream size                              : 730 MiB (90%)\nWriting library                          : XviD 64\n\nAudio\nID                                       : 1\nFormat                                   : AC-3\nFormat/Info                              : Audio Coding 3\nMode extension                           : CM (complete main)\nCodec ID                                 : 2000\nDuration                                 : 1h 24mn\nBit rate mode                            : Constant\nBit rate                                 : 128 Kbps\nChannel(s)                               : 2 channels\nChannel positions                        : Front: L R\nSampling rate                            : 48.0 KHz\nBit depth                                : 16 bits\nCompression mode                         : Lossy\nStream size                              : 77.5 MiB (10%)\nAlignment                                : Aligned on interleaves\nInterleave, duration                     : 33 ms (1.00 video frame)\nInterleave, preload duration             : 512 ms\n\n\nscreens\n &lt;a href=&quot;\nhttp://i.imgur.com/Xcto5xo.jpg&quot; rel=&quot;nofollow&quot; target=&quot;_NEW&quot;&gt;\nhttp://i.imgur.com/Xcto5xo.jpg&lt;/a&gt; &lt;a href=&quot;\nhttp://i.imgur.com/ov2SGI6.jpg&quot; rel=&quot;nofollow&quot; target=&quot;_NEW&quot;&gt;\nhttp://i.imgur.com/ov2SGI6.jpg&lt;/a&gt; &lt;a href=&quot;\nhttp://i.imgur.com/kMFhJYi.jpg&quot; rel=&quot;nofollow&quot; target=&quot;_NEW&quot;&gt;\nhttp://i.imgur.com/kMFhJYi.jpg&lt;/a&gt; &lt;a href=&quot;\nhttp://i.imgur.com/Q1miqhW.jpg&quot; rel=&quot;nofollow&quot; target=&quot;_NEW&quot;&gt;\nhttp://i.imgur.com/Q1miqhW.jpg&lt;/a&gt; &lt;a href=&quot;\nhttp://i.imgur.com/9lTW4VB.jpg&quot; rel=&quot;nofollow&quot; target=&quot;_NEW&quot;&gt;\nhttp://i.imgur.com/9lTW4VB.jpg&lt;/a&gt; &lt;a href=&quot;\nhttp://i.imgur.com/70Hik3k.jpg&quot; rel=&quot;nofollow&quot; target=&quot;_NEW&quot;&gt;\nhttp://i.imgur.com/70Hik3k.jpg&lt;/a&gt;",
  "parsed": {
    "xt": "urn:btih:681afb07a7f28a7ddbe29e9203f69b333f27d63f",
    "dn": "Dracula.Untold.2014.TS.XViD.AC3.MrSeeN-SiMPLE",
    "tr": [
      "udp://exodus.desync.com:6969",
      "udp://open.demonii.com:1337",
      "udp://tracker.coppersurfer.tk:6969",
      "udp://tracker.openbittorrent.com:80"
    ],
    "infoHash": "681afb07a7f28a7ddbe29e9203f69b333f27d63f",
    "infoHashBuffer": {
      "type": "Buffer",
      "data": [
        104,
        26,
        251,
        7,
        167,
        242,
        138,
        125,
        219,
        226,
        158,
        146,
        3,
        246,
        155,
        51,
        63,
        39,
        214,
        63
      ]
    },
    "name": "Dracula.Untold.2014.TS.XViD.AC3.MrSeeN-SiMPLE",
    "announce": [
      "udp://exodus.desync.com:6969",
      "udp://open.demonii.com:1337",
      "udp://tracker.coppersurfer.tk:6969",
      "udp://tracker.openbittorrent.com:80"
    ],
    "urlList": []
  },
  "previous": 47,
  "peers": 6,
  "last_updated": "2016-12-25T03:28:45.957Z"
}